<svg width="491" height="643" xmlns="http://www.w3.org/2000/svg" xmlns:xlink="http://www.w3.org/1999/xlink" overflow="hidden"><defs><clipPath id="clip0"><path d="M0 0 491 0 491 643 0 643Z" fill-rule="evenodd" clip-rule="evenodd"/></clipPath></defs><g clip-path="url(#clip0)"><rect x="0" y="0" width="491" height="642.064" fill="#FFFFFF" transform="scale(1 1.00146)"/><rect x="0" y="0" width="141" height="26.9607" stroke="#70AD47" stroke-width="1.33243" stroke-miterlimit="8" fill="#FFFFFF" transform="matrix(1 0 -0 1.00146 124.5 18.5)"/><text fill="#548235" font-family="Calibri,Calibri_MSFontService,sans-serif" font-weight="400" font-size="13" transform="matrix(1 0 0 1.00146 143.569 36)">Аптечная система</text><path d="M0 0 0.000104916 547.66" stroke="#A5A5A5" stroke-width="0.666214" stroke-miterlimit="8" fill="none" fill-rule="evenodd" transform="matrix(1 0 -0 1.00146 194.5 45.4999)"/><rect x="0" y="0" width="5.00007" height="93.8632" stroke="#A5A5A5" stroke-width="0.666214" stroke-miterlimit="8" fill="#F2F2F2" transform="matrix(1 0 -0 1.00146 192.5 215.5)"/><path d="M0 13.4803C-1.71873e-15 6.03536 6.04417-1.71623e-15 13.5-3.43246e-15 20.9559-6.86491e-15 27 6.03536 27 13.4803 27 20.9253 20.9559 26.9607 13.5 26.9607 6.04417 26.9607-8.59366e-15 20.9253 0 13.4803Z" fill="#FFFFFF" fill-rule="evenodd" transform="matrix(1 0 -0 1.00146 35.5 18.5)"/><path d="M7.76877 9.44872C7.76877 8.6732 8.39837 8.04451 9.17502 8.04451 9.95168 8.04451 10.5813 8.6732 10.5813 9.44872 10.5813 10.2242 9.95168 10.8529 9.17502 10.8529 8.39837 10.8529 7.76877 10.2242 7.76877 9.44872ZM16.4188 9.44872C16.4188 8.6732 17.0484 8.04451 17.825 8.04451 18.6017 8.04451 19.2313 8.6732 19.2313 9.44872 19.2313 10.2242 18.6017 10.8529 17.825 10.8529 17.0484 10.8529 16.4188 10.2242 16.4188 9.44872Z" stroke="#70AD47" stroke-width="1.33243" stroke-miterlimit="8" fill="#CDCDCD" fill-rule="evenodd" transform="matrix(1 0 -0 1.00146 35.5 18.5)"/><path d="M6.18293 19.3592C11.061 22.7045 15.9334 22.7045 20.8 19.3592" stroke="#70AD47" stroke-width="1.33243" stroke-miterlimit="8" fill="none" fill-rule="evenodd" transform="matrix(1 0 -0 1.00146 35.5 18.5)"/><path d="M0 13.4803C-1.71873e-15 6.03536 6.04417-1.71623e-15 13.5-3.43246e-15 20.9559-6.86491e-15 27 6.03536 27 13.4803 27 20.9253 20.9559 26.9607 13.5 26.9607 6.04417 26.9607-8.59366e-15 20.9253 0 13.4803Z" stroke="#70AD47" stroke-width="1.33243" stroke-miterlimit="8" fill="none" fill-rule="evenodd" transform="matrix(1 0 -0 1.00146 35.5 18.5)"/><path d="M0 0 0.000104916 547.66" stroke="#A5A5A5" stroke-width="0.666214" stroke-miterlimit="8" fill="none" fill-rule="evenodd" transform="matrix(1 0 -0 1.00146 49.5 46.5)"/><rect x="0" y="0" width="141" height="26.9607" stroke="#70AD47" stroke-width="1.33243" stroke-miterlimit="8" fill="#FFFFFF" transform="matrix(1 0 -0 1.00146 326.5 18.5)"/><text fill="#548235" font-family="Calibri,Calibri_MSFontService,sans-serif" font-weight="400" font-size="13" transform="matrix(1 0 0 1.00146 340.602 36)">Сервер <tspan x="43.8036" y="0">PharmApi.ru</tspan></text><path d="M0 0 0.000104916 547.66" stroke="#A5A5A5" stroke-width="0.666214" stroke-miterlimit="8" fill="none" fill-rule="evenodd" transform="matrix(1 0 -0 1.00146 397.5 46.5)"/><rect x="0" y="0" width="5.00007" height="94.8618" stroke="#A5A5A5" stroke-width="0.666214" stroke-miterlimit="8" fill="#F2F2F2" transform="matrix(1 0 -0 1.00146 192.5 75.5)"/><text fill="#548235" font-family="Calibri,Calibri_MSFontService,sans-serif" font-weight="400" font-size="11" transform="matrix(1 0 0 1.00146 124.724 68)">«Ночное» обновление данных</text><rect x="0" y="0" width="4.00001" height="14.9782" stroke="#A5A5A5" stroke-width="0.666214" stroke-miterlimit="8" fill="#F2F2F2" transform="matrix(1 0 -0 1.00146 395.5 86.5)"/><rect x="0" y="0" width="4.00001" height="14.9782" stroke="#A5A5A5" stroke-width="0.666214" stroke-miterlimit="8" fill="#F2F2F2" transform="matrix(1 0 -0 1.00146 395.5 119.5)"/><rect x="0" y="0" width="4.00001" height="15.9767" stroke="#A5A5A5" stroke-width="0.666214" stroke-miterlimit="8" fill="#F2F2F2" transform="matrix(1 0 -0 1.00146 395.5 152.5)"/><text font-family="Calibri,Calibri_MSFontService,sans-serif" font-weight="400" font-size="9" transform="matrix(1 0 0 1.00146 200.71 88)">get_programs<tspan x="-0.166397" y="32.952">get_products</tspan><tspan x="-0.165878" y="66.9025">update pharmacies </tspan><tspan x="74.9498" y="66.9025">или </tspan>pl</text><rect x="0" y="0" width="5.00007" height="94.8618" stroke="#A5A5A5" stroke-width="0.666214" stroke-miterlimit="8" fill="#F2F2F2" transform="matrix(1 0 -0 1.00146 46.5 210.5)"/><text font-family="Calibri,Calibri_MSFontService,sans-serif" font-weight="400" font-size="9" transform="matrix(1 0 0 1.00146 54.8095 223)">Номер карты и телефон</text><path d="M2.44387e-07-0.333107 137.673-0.333006 137.673 0.333208-2.44387e-07 0.333107ZM137.673 0.000101005 135.008-3.99719 143.003 0.000104916 135.008 3.99739Z" fill="#4472C4" transform="matrix(1 0 -0 1.00146 51.5 225.5)"/><path d="M1.74481e-07-0.333107 194.968-0.333005 194.968 0.333209-1.74481e-07 0.333107ZM194.968 0.000102124 192.303-3.99719 200.297 0.000104916 192.303 3.99739Z" fill="#4472C4" transform="matrix(1 0 -0 1.00146 197.5 89.5)"/><path d="M1.74336e-07-0.333107 195.134-0.333005 195.134 0.333209-1.74336e-07 0.333107ZM195.134 0.000102126 192.469-3.99719 200.464 0.000104916 192.469 3.99739Z" fill="#4472C4" transform="matrix(1 0 -0 1.00146 197.5 122.5)"/><path d="M1.74336e-07-0.333107 195.134-0.333005 195.134 0.333209-1.74336e-07 0.333107ZM195.134 0.000102126 192.469-3.99719 200.464 0.000104916 192.469 3.99739Z" fill="#4472C4" transform="matrix(1 0 -0 1.00146 197.5 156.5)"/><text fill="#548235" font-family="Calibri,Calibri_MSFontService,sans-serif" font-weight="400" font-size="11" transform="matrix(1 0 0 1.00146 23.09 200)">Регистрация (привязка) карты</text><rect x="0" y="0" width="5.00007" height="33.9506" stroke="#A5A5A5" stroke-width="0.666214" stroke-miterlimit="8" fill="#F2F2F2" transform="matrix(1 0 -0 1.00146 394.5 232.5)"/><text font-family="Calibri,Calibri_MSFontService,sans-serif" font-weight="400" font-size="9" transform="matrix(1 0 0 1.00146 200.195 235)">register</text><path d="M1.74584e-07-0.333107 194.85-0.333005 194.85 0.333209-1.74584e-07 0.333107ZM194.849 0.000102122 192.184-3.99719 200.179 0.000104916 192.184 3.99739Z" fill="#4472C4" transform="matrix(1 0 -0 1.00146 196.5 236.5)"/><text font-family="Calibri,Calibri_MSFontService,sans-serif" font-weight="400" font-size="9" transform="matrix(1 0 0 1.00146 280.328 259)">СМС с контрольным кодом</text><path d="M5.32751-0.333106 345.698-0.333002 345.698 0.333212 5.32751 0.333109ZM5.32971 1.61751e-06 7.99457 3.99729 0 0 7.99457-3.99728Z" fill="#4472C4" transform="matrix(1 0 -0 1.00146 49.5 261.5)"/><text font-family="Calibri,Calibri_MSFontService,sans-serif" font-weight="400" font-size="9" transform="matrix(1 0 0 1.00146 54.8091 284)">Контрольный код из СМС</text><path d="M2.44387e-07-0.333107 137.673-0.333006 137.673 0.333208-2.44387e-07 0.333107ZM137.673 0.000101005 135.008-3.99719 143.003 0.000104916 135.008 3.99739Z" fill="#4472C4" transform="matrix(1 0 -0 1.00146 51.5 286.5)"/><rect x="0" y="0" width="5.00007" height="14.9782" stroke="#A5A5A5" stroke-width="0.666214" stroke-miterlimit="8" fill="#F2F2F2" transform="matrix(1 0 -0 1.00146 394.5 294.5)"/><text font-family="Calibri,Calibri_MSFontService,sans-serif" font-weight="400" font-size="9" transform="matrix(1 0 0 1.00146 200.195 296)">confirm_code</text><path d="M1.74584e-07-0.333107 194.85-0.333005 194.85 0.333209-1.74584e-07 0.333107ZM194.849 0.000102122 192.184-3.99719 200.179 0.000104916 192.184 3.99739Z" fill="#4472C4" transform="matrix(1 0 -0 1.00146 196.5 297.5)"/><rect x="0" y="0" width="5.00007" height="131.808" stroke="#A5A5A5" stroke-width="0.666214" stroke-miterlimit="8" fill="#F2F2F2" transform="matrix(1 0 -0 1.00146 192.5 361.5)"/><rect x="0" y="0" width="5.00007" height="135.802" stroke="#A5A5A5" stroke-width="0.666214" stroke-miterlimit="8" fill="#F2F2F2" transform="matrix(1 0 -0 1.00146 46.5 356.5)"/><text font-family="Calibri,Calibri_MSFontService,sans-serif" font-weight="400" font-size="9" transform="matrix(1 0 0 1.00146 54.8091 370)">Выбранные товары</text><path d="M2.44387e-07-0.333107 137.673-0.333006 137.673 0.333208-2.44387e-07 0.333107ZM137.673 0.000101005 135.008-3.99719 143.003 0.000104916 135.008 3.99739Z" fill="#4472C4" transform="matrix(1 0 -0 1.00146 51.5 371.5)"/><text fill="#548235" font-family="Calibri,Calibri_MSFontService,sans-serif" font-weight="400" font-size="11" transform="matrix(1 0 0 1.00146 23.09 346)">Покупка препарата из Программы</text><rect x="0" y="0" width="5.00007" height="14.9782" stroke="#A5A5A5" stroke-width="0.666214" stroke-miterlimit="8" fill="#F2F2F2" transform="matrix(1 0 -0 1.00146 394.5 408.5)"/><text font-family="Calibri,Calibri_MSFontService,sans-serif" font-weight="400" font-size="9" transform="matrix(1 0 0 1.00146 200.195 410)">get_discount</text><path d="M1.74584e-07-0.333107 194.85-0.333005 194.85 0.333209-1.74584e-07 0.333107ZM194.849 0.000102122 192.184-3.99719 200.179 0.000104916 192.184 3.99739Z" fill="#4472C4" transform="matrix(1 0 -0 1.00146 196.5 411.5)"/><rect x="0" y="0" width="4.99997" height="10.9839" stroke="#A5A5A5" stroke-width="0.666214" stroke-miterlimit="8" fill="#F2F2F2" transform="matrix(1 0 -0 1.00146 195.5 458.5)"/><text font-family="Calibri,Calibri_MSFontService,sans-serif" font-weight="400" font-size="9" transform="matrix(1 0 0 1.00146 54.8095 446)">Согласие с покупкой</text><path d="M2.44387e-07-0.333107 137.673-0.333006 137.673 0.333208-2.44387e-07 0.333107ZM137.673 0.000101005 135.008-3.99719 143.003 0.000104916 135.008 3.99739Z" fill="#4472C4" transform="matrix(1 0 -0 1.00146 51.5 447.5)"/><rect x="0" y="0" width="5.00007" height="14.9782" stroke="#A5A5A5" stroke-width="0.666214" stroke-miterlimit="8" fill="#F2F2F2" transform="matrix(1 0 -0 1.00146 394.5 478.5)"/><text font-family="Calibri,Calibri_MSFontService,sans-serif" font-weight="400" font-size="9" transform="matrix(1 0 0 1.00146 200.195 481)">confirm_purchase</text><path d="M1.74584e-07-0.333107 194.85-0.333005 194.85 0.333209-1.74584e-07 0.333107ZM194.849 0.000102122 192.184-3.99719 200.179 0.000104916 192.184 3.99739Z" fill="#4472C4" transform="matrix(1 0 -0 1.00146 196.5 482.5)"/><text font-family="Calibri,Calibri_MSFontService,sans-serif" font-weight="400" font-size="9" transform="matrix(1 0 0 1.00146 55.1563 388)">Номер карты участника программы</text><path d="M2.44387e-07-0.333107 137.673-0.333006 137.673 0.333208-2.44387e-07 0.333107ZM137.673 0.000101005 135.008-3.99719 143.003 0.000104916 135.008 3.99739Z" fill="#4472C4" transform="matrix(1 0 -0 1.00146 52.5 389.5)"/><path d="M0-0.333107 17.3331-0.333107 17.3331 12.3156 6.06877 12.3157 6.06877 11.6495 17 11.6494 16.6669 11.9825 16.6669 0 17 0.333107 0 0.333107ZM6.06877 11.9826 8.73365 15.9799 0.739054 11.9826 8.7336 7.98529Z" fill="#4472C4" transform="matrix(1 0 -0 1.00146 197.5 451.5)"/><text font-family="Calibri,Calibri_MSFontService,sans-serif" font-weight="400" font-size="9" transform="matrix(1 0 0 1.00146 201.221 450)">Фискализация продажи</text><path d="M0 0C15.4169-2.8919 34.9579 5.20323 52.08 0 69.202-5.20323 85.4361 0.326652 99.82 0 114.204-0.326652 144.466 0.363809 158.41 0 172.354-0.363809 192.106 4.39342 217 0 223.272 26.7516 211.705 32.6038 217 54.9199 199.88 58.187 183.257 50.6119 167.09 54.9199 150.923 59.2279 136.384 50.2465 117.18 54.9199 97.9758 59.5932 76.7863 51.0369 58.59 54.9199 40.3937 58.8029 11.8229 53.7944 0 54.9199-0.545303 31.079 4.98069 26.0779 0 0Z" fill="#FFFFFF" fill-rule="evenodd" transform="matrix(1 0 -0 1.00146 227.5 335.5)"/><path d="M0 0C18.4678-5.57533 38.1498 4.21194 52.08 0 66.0102-4.21194 94.2419 6.02007 106.33 0 118.418-6.02007 134.434 2.22589 160.58 0 186.726-2.22589 205.243 1.58109 217 0 222.09 18.9262 212.618 32.0342 217 54.9199 203.148 60.4036 185.788 49.6115 162.75 54.9199 139.712 60.2283 134.538 48.969 112.84 54.9199 91.1416 60.8708 78.6283 52.4053 62.93 54.9199 47.2316 57.4344 29.2753 53.6686 0 54.9199-0.159895 30.0496 0.84882 13.0527 0 0Z" stroke="#A5A5A5" stroke-width="0.666214" stroke-miterlimit="8" fill="none" fill-rule="evenodd" transform="matrix(1 0 -0 1.00146 227.5 335.5)"/><text font-family="Calibri,Calibri_MSFontService,sans-serif" font-weight="400" font-size="9" transform="matrix(1 0 0 1.00146 236.986 349)">Можно делать несколько вызовов <tspan x="140.405" y="0">get_discount </tspan><tspan x="0" y="10.984">(</tspan><tspan x="2.83141" y="10.984">по мере изменения чека покупателем), при </tspan><tspan x="0" y="21.968">этом подтвердить (</tspan><tspan x="77.1143" y="21.968">confirm_purchase) </tspan>можно <tspan x="0" y="32.952">будет только последний расчёт.</tspan></text><rect x="0" y="0" width="5.00007" height="29.9564" stroke="#A5A5A5" stroke-width="0.666214" stroke-miterlimit="8" fill="#F2F2F2" transform="matrix(1 0 -0 1.00146 192.5 532.5)"/><text font-family="Calibri,Calibri_MSFontService,sans-serif" font-weight="400" font-size="9" transform="matrix(1 0 0 1.00146 127.785 542)">???</text><path d="M4.94391e-07-0.333107 65.3596-0.33301 65.3596 0.333204-4.94391e-07 0.333107ZM65.3596 9.70054e-05 62.6948-3.99719 70.6893 0.000104916 62.6948 3.99738Z" fill="#4472C4" transform="matrix(1 0 -0 1.00146 124.5 542.5)"/><rect x="0" y="0" width="5.00007" height="15.9767" stroke="#A5A5A5" stroke-width="0.666214" stroke-miterlimit="8" fill="#F2F2F2" transform="matrix(1 0 -0 1.00146 394.5 549.5)"/><text font-family="Calibri,Calibri_MSFontService,sans-serif" font-weight="400" font-size="9" transform="matrix(1 0 0 1.00146 200.265 552)">cancel_purchase</text><path d="M1.74584e-07-0.333107 194.85-0.333005 194.85 0.333209-1.74584e-07 0.333107ZM194.849 0.000102122 192.184-3.99719 200.179 0.000104916 192.184 3.99739Z" fill="#4472C4" transform="matrix(1 0 -0 1.00146 196.5 553.5)"/><text fill="#548235" font-family="Calibri,Calibri_MSFontService,sans-serif" font-weight="400" font-size="11" transform="matrix(1 0 0 1.00146 123.774 525)">Отмена покупки</text><path d="M0 0C19.6797-2.31352 44.6237 4.16259 66.48 0 88.3362-4.16259 109.059 0.261322 127.42 0 145.781-0.261322 184.411 0.291048 202.21 0 220.009-0.291048 245.223 3.51474 277 0 285.006 21.4013 270.242 26.083 277 43.9359 255.147 46.5497 233.927 40.4896 213.29 43.9359 192.653 47.3823 174.094 40.1973 149.58 43.9359 125.066 47.6746 98.0176 40.8296 74.79 43.9359 51.5624 47.0423 15.0919 43.0356 0 43.9359-0.696077 24.8633 6.35784 20.8623 0 0Z" fill="#FFFFFF" fill-rule="evenodd" transform="matrix(1 0 -0 1.00146 167.5 576.5)"/><path d="M0 0C23.5742-4.46027 48.6981 3.36955 66.48 0 84.2618-3.36955 120.3 4.81606 135.73 0 151.16-4.81606 171.604 1.78071 204.98 0 238.356-1.78071 261.992 1.26487 277 0 283.498 15.1409 271.406 25.6274 277 43.9359 259.318 48.3229 237.159 39.6892 207.75 43.9359 178.342 48.1827 171.738 39.1752 144.04 43.9359 116.342 48.6967 100.369 41.9243 80.3299 43.9359 60.291 45.9476 37.3699 42.9349 0 43.9359-0.204106 24.0397 1.08352 10.4422 0 0Z" stroke="#A5A5A5" stroke-width="0.666214" stroke-miterlimit="8" fill="none" fill-rule="evenodd" transform="matrix(1 0 -0 1.00146 167.5 576.5)"/><text font-family="Calibri,Calibri_MSFontService,sans-serif" font-weight="400" font-size="9" transform="matrix(1 0 0 1.00146 176.481 591)">Отменить транзакцию можно в течение 30 минут после расчёта <tspan x="0" y="10.984">(как </tspan><tspan x="18.1543" y="10.984">и подтверждение). </tspan><tspan x="96.268" y="10.984">Более поздние отмены должны </tspan><tspan x="0" y="21.968">делаться через службу поддержки в «ручном» режиме.</tspan></text></g></svg>